:SAMPLES-PER-SECOND 30
:FULLY-SPECIFIED
:DEGREES
247
root  -33.7379 34.9967 3.85263 -175.251 81.5784 178.957
RightUpLeg  -5.16365 -7.25334 -1.02448
RightLeg  5.80701 8.15032 0.303346
RightFoot  4.1756 -0.00401859 0.706995
RightToes  -31.6799 -0.152735 -0.259613
Spine  -1.99707 0.161728 -0.352065
Spine1  -4.01165 0.49351 -0.0429072
HEad  -64.9697 -4.56466 5.77166
LeftShoulder1  -1.94126e-019 -3.10601e-018 -2.51263e-017
LeftArm  -32.8502 15.5607 -82.3511
LeftForeArm  7.94265 -50.7537 -13.1932
LeftHand  -0.149741 1.51402 4.31189
RightShoulder  -4.96962e-017 0 -2.36833e-017
RightArm  -45.0771 -15.1109 83.5244
RightForeArm  33.4204 41.3467 7.64285
RightHand  -0.0672131 -3.9364 -3.88176
LeftUpLeg  -6.73223 1.98146 -0.501644
LeftLeg  6.96608 15.0702 0.853841
LeftFoot  5.79429 -0.0800456 1.72485
LeftToes  -17.5166 1.89912e-006 4.45198e-008
248
root  -33.7155 34.9965 3.83057 -174.999 81.6312 179.096
RightUpLeg  -5.18339 -7.33441 -1.02925
RightLeg  5.67091 8.27508 0.288338
RightFoot  4.26116 -0.0041769 0.727608
RightToes  -31.8348 -0.153208 -0.259733
Spine  -2.01055 0.213652 -0.359429
Spine1  -4.03918 0.598228 -0.061551
HEad  -65.128 -4.51794 5.81552
LeftShoulder1  -1.94126e-019 -3.10601e-018 -2.51263e-017
LeftArm  -37.2325 17.3829 -84.0873
LeftForeArm  1.10274 -55.9426 -16.7838
LeftHand  -0.0795838 2.93026 3.11172
RightShoulder  -4.96962e-017 0 -2.36833e-017
RightArm  -48.0615 -16.0723 84.4286
RightForeArm  23.3682 45.8237 9.84663
RightHand  -0.00820868 -6.30855 -2.91784
LeftUpLeg  -6.74438 1.8949 -0.517686
LeftLeg  6.85678 15.2154 0.833124
LeftFoot  5.78037 -0.0813158 1.73623
LeftToes  -17.4997 1.89912e-006 4.45198e-008
249
root  -33.6906 35.001 3.80463 -174.747 81.6961 179.298
RightUpLeg  -5.09135 -7.23305 -1.02823
RightLeg  5.45049 8.2133 0.254658
RightFoot  4.36201 -0.00357124 0.736876
RightToes  -31.5842 -0.153657 -0.259836
Spine  -2.00857 0.351775 -0.382003
Spine1  -4.03024 0.869946 -0.110973
HEad  -64.7833 -4.72702 6.03077
LeftShoulder1  -1.94126e-019 -3.10601e-018 -2.51263e-017
LeftArm  -41.3107 18.4516 -86.0079
LeftForeArm  -7.88961 -59.3069 -20.1622
LeftHand  -0.0451338 4.25682 2.47979
RightShoulder  -4.96962e-017 0 -2.36833e-017
RightArm  -50.8636 -16.8727 84.823
RightForeArm  12.0636 48.9938 12.0003
RightHand  -0.0293153 -7.82585 -0.605429
LeftUpLeg  -6.68708 1.8394 -0.527706
LeftLeg  6.74552 15.3281 0.809676
LeftFoot  5.77585 -0.0824327 1.74636
LeftToes  -17.4777 1.89912e-006 4.45198e-008
250
root  -33.6772 35.0058 3.76964 -174.616 81.5025 179.441
RightUpLeg  -4.92812 -7.32292 -1.05809
RightLeg  5.25277 8.10266 0.223339
RightFoot  4.48992 -0.00299937 0.746117
RightToes  -31.5344 -0.154082 -0.259931
Spine  -1.99692 0.482188 -0.443757
Spine1  -4.00003 1.12877 -0.242174
HEad  -63.8082 -5.26093 6.28444
LeftShoulder1  -1.94126e-019 -3.10601e-018 -2.51263e-017
LeftArm  -43.83 18.0875 -87.2543
LeftForeArm  -16.4948 -61.0815 -22.5518
LeftHand  0.00511315 6.56888 3.58584
RightShoulder  -4.96962e-017 0 -2.36833e-017
RightArm  -53.2947 -17.1715 84.5574
RightForeArm  -0.526969 50.3217 13.5949
RightHand  -0.134714 -8.81397 2.78162
LeftUpLeg  -6.67369 1.41965 -0.557593
LeftLeg  6.77612 15.5648 0.830116
LeftFoot  5.72357 -0.0835235 1.75691
LeftToes  -17.2196 1.89912e-006 4.45198e-008
251
root  -33.6764 35.0109 3.73833 -174.758 81.187 179.393
RightUpLeg  -4.75141 -7.43576 -1.12235
RightLeg  5.18187 7.91128 0.208319
RightFoot  4.56007 -0.00148058 0.741242
RightToes  -31.6042 -0.154484 -0.260024
Spine  -1.99964 0.598482 -0.533691
Spine1  -3.99351 1.36387 -0.430744
HEad  -62.3917 -5.93088 6.36639
LeftShoulder1  -1.94126e-019 -3.10601e-018 -2.51263e-017
LeftArm  -45.5287 16.2079 -87.6177
LeftForeArm  -23.8444 -60.9296 -22.938
LeftHand  0.102876 8.3192 5.52811
RightShoulder  -4.96962e-017 0 -2.36833e-017
RightArm  -54.8179 -16.9079 84.1716
RightForeArm  -13.7586 50.9078 14.8361
RightHand  -0.215231 -9.68264 4.18375
LeftUpLeg  -6.63335 1.27969 -0.601947
LeftLeg  6.82395 15.4133 0.834966
LeftFoot  5.68292 -0.0821471 1.72959
LeftToes  -16.9312 1.89912e-006 4.45198e-008
252
root  -33.6916 35.0127 3.71339 -175.218 80.7625 179.133
RightUpLeg  -4.59446 -7.51705 -1.21297
RightLeg  5.35906 7.57666 0.222949
RightFoot  4.49792 0.00197013 0.708102
RightToes  -31.3524 -0.154863 -0.260123
Spine  -1.97169 0.608266 -0.620395
Spine1  -3.92326 1.38727 -0.608474
HEad  -61.1551 -6.37288 6.09293
LeftShoulder1  -1.94126e-019 -3.10601e-018 -2.51263e-017
LeftArm  -46.8011 13.7459 -87.1409
LeftForeArm  -27.5398 -59.6042 -21.8914
LeftHand  0.153621 9.61933 5.38313
RightShoulder  -4.96962e-017 0 -2.36833e-017
RightArm  -55.3175 -15.6183 83.7814
RightForeArm  -21.0172 51.9815 15.8946
RightHand  -0.22182 -11.9862 2.63574
LeftUpLeg  -6.5488 1.30133 -0.666413
LeftLeg  6.91349 14.9699 0.834659
LeftFoot  5.73238 -0.0803923 1.69655
LeftToes  -17.0995 1.89912e-006 4.45198e-008
253
root  -33.7141 35.017 3.69498 -175.681 80.4702 178.856
RightUpLeg  -4.54156 -7.42075 -1.2957
RightLeg  5.65345 7.18747 0.24845
RightFoot  4.39998 0.00588933 0.667522
RightToes  -31.0288 -0.15522 -0.260236
Spine  -1.96698 0.526109 -0.649975
Spine1  -3.89938 1.2227 -0.66489
HEad  -60.2397 -6.30564 5.46976
LeftShoulder1  -1.94126e-019 -3.10601e-018 -2.51263e-017
LeftArm  -46.8558 11.8088 -86.3844
LeftForeArm  -28.7802 -59.0089 -21.4265
LeftHand  0.228272 10.0955 6.66496
RightShoulder  -4.96962e-017 0 -2.36833e-017
RightArm  -55.9362 -13.5179 83.327
RightForeArm  -20.9413 52.7861 16.3698
RightHand  -0.119132 -12.8019 0.733569
LeftUpLeg  -6.43822 1.22893 -0.734975
LeftLeg  6.93902 14.7639 0.829941
LeftFoot  5.76362 -0.0799346 1.68352
LeftToes  -16.9381 1.89912e-006 4.45198e-008
254
root  -33.7361 35.0187 3.67727 -176.04 80.2603 178.637
RightUpLeg  -4.54252 -7.60272 -1.38061
RightLeg  5.94088 7.15193 0.283082
RightFoot  4.28919 0.00802194 0.651634
RightToes  -30.9203 -0.155555 -0.26037
Spine  -1.95736 0.403448 -0.645417
Spine1  -3.86458 0.977639 -0.648302
HEad  -59.9382 -6.05253 4.93205
LeftShoulder1  -1.94126e-019 -3.10601e-018 -2.51263e-017
LeftArm  -46.9397 10.4694 -85.8854
LeftForeArm  -29.4754 -59.6838 -22.0843
LeftHand  0.343581 10.5791 8.56937
RightShoulder  -4.96962e-017 0 -2.36833e-017
RightArm  -55.8635 -11.2101 82.6763
RightForeArm  -20.9268 53.1829 16.6157
RightHand  -0.0887362 -13.1155 0.23946
LeftUpLeg  -6.31985 0.960379 -0.804667
LeftLeg  6.88191 14.8292 0.81888
LeftFoot  5.81685 -0.081737 1.70515
LeftToes  -16.7849 1.89912e-006 4.45198e-008
255
root  -33.7472 35.0243 3.66243 -176.152 80.3441 178.559
RightUpLeg  -4.55419 -7.70813 -1.4263
RightLeg  5.96855 7.32429 0.2934
RightFoot  4.34164 0.00766279 0.670435
RightToes  -30.8909 -0.155869 -0.260533
Spine  -1.99947 0.413754 -0.626778
Spine1  -3.92933 0.996416 -0.60527
HEad  -60.1482 -5.95308 4.65209
LeftShoulder1  -1.94126e-019 -3.10601e-018 -2.51263e-017
LeftArm  -46.7006 9.6804 -85.538
LeftForeArm  -29.1311 -60.9607 -23.3186
LeftHand  0.40359 10.6271 9.76222
RightShoulder  -4.96962e-017 0 -2.36833e-017
RightArm  -54.7188 -9.54232 81.9979
RightForeArm  -22.3795 54.1438 17.3169
RightHand  -0.00796258 -13.5783 -0.910738
LeftUpLeg  -6.15813 0.910583 -0.849395
LeftLeg  6.61454 14.983 0.757918
LeftFoot  5.91294 -0.084933 1.74763
LeftToes  -16.835 1.89912e-006 4.45198e-008
256
root  -33.745 35.0325 3.65001 -176.079 80.5822 178.59
RightUpLeg  -4.48212 -7.63441 -1.44204
RightLeg  5.68 7.50378 0.262797
RightFoot  4.53801 0.00589647 0.708351
RightToes  -31.1298 -0.156161 -0.260732
Spine  -2.07789 0.497789 -0.617754
Spine1  -4.06539 1.16048 -0.582858
HEad  -60.4909 -5.97664 4.53451
LeftShoulder1  -1.94126e-019 -3.10601e-018 -2.51263e-017
LeftArm  -46.368 9.21321 -85.3434
LeftForeArm  -27.6613 -62.3854 -24.7796
LeftHand  0.399027 10.6321 9.65773
RightShoulder  -4.96962e-017 0 -2.36833e-017
RightArm  -53.4494 -8.43422 81.5419
RightForeArm  -22.6369 55.4574 18.2252
RightHand  0.0816571 -13.1451 -2.21661
LeftUpLeg  -5.99772 1.03307 -0.865427
LeftLeg  6.2613 15.0883 0.671027
LeftFoot  6.05806 -0.0887239 1.79823
LeftToes  -16.9126 1.89912e-006 4.45198e-008
257
root  -33.7356 35.0396 3.63348 -175.87 80.7786 178.706
RightUpLeg  -4.37381 -7.59252 -1.4389
RightLeg  5.24001 7.64986 0.209221
RightFoot  4.78264 0.00371586 0.75112
RightToes  -31.3111 -0.156434 -0.260975
Spine  -2.16834 0.544768 -0.615264
Spine1  -4.23049 1.24896 -0.572783
HEad  -61.1117 -5.92069 4.60899
LeftShoulder1  -1.94126e-019 -3.10601e-018 -2.51263e-017
LeftArm  -45.7893 9.25171 -85.1461
LeftForeArm  -25.8971 -64.0493 -26.711
LeftHand  0.420696 10.8148 9.8004
RightShoulder  -4.96962e-017 0 -2.36833e-017
RightArm  -51.5971 -7.82045 81.2013
RightForeArm  -21.718 56.9691 19.2816
RightHand  0.0241374 -13.0545 -1.39765
LeftUpLeg  -5.87125 1.12836 -0.873468
LeftLeg  5.88897 15.1873 0.577682
LeftFoot  6.18108 -0.0921939 1.84239
LeftToes  -16.9337 1.89912e-006 4.45198e-008
258
root  -33.7192 35.0449 3.61663 -175.759 80.941 178.709
RightUpLeg  -4.25577 -7.5293 -1.4464
RightLeg  4.79969 7.72094 0.151923
RightFoot  4.94019 0.00261447 0.77733
RightToes  -31.2653 -0.156686 -0.261243
Spine  -2.26054 0.587802 -0.613356
Spine1  -4.40466 1.33353 -0.567811
HEad  -61.7284 -5.82578 4.76834
LeftShoulder1  -1.94126e-019 -3.10601e-018 -2.51263e-017
LeftArm  -45.1309 9.62306 -84.9838
LeftForeArm  -24.165 -65.4078 -28.4946
LeftHand  0.405951 10.8173 9.49647
RightShoulder  -4.96962e-017 0 -2.36833e-017
RightArm  -49.9191 -7.71985 81.0521
RightForeArm  -20.0488 58.6544 20.5412
RightHand  -0.0677407 -13.1418 -0.0658189
LeftUpLeg  -5.73636 1.27143 -0.899485
LeftLeg  5.4849 15.2055 0.472314
LeftFoot  6.29317 -0.0949998 1.87443
LeftToes  -16.8687 1.89912e-006 4.45198e-008
259
root  -33.6989 35.0496 3.5965 -175.597 81.0207 178.767
RightUpLeg  -4.13384 -7.55772 -1.46268
RightLeg  4.38923 7.83991 0.0982023
RightFoot  5.13392 0.000766385 0.812983
RightToes  -31.4145 -0.156919 -0.261513
Spine  -2.33481 0.611092 -0.599594
Spine1  -4.54497 1.37818 -0.538013
HEad  -62.3203 -5.79407 4.91932
LeftShoulder1  -1.94126e-019 -3.10601e-018 -2.51263e-017
LeftArm  -44.4783 10.1532 -84.8896
LeftForeArm  -23.3288 -66.4155 -30.0111
LeftHand  0.392768 10.9051 9.09415
RightShoulder  -4.96962e-017 0 -2.36833e-017
RightArm  -48.4023 -7.84585 81.0029
RightForeArm  -18.9894 60.2232 21.8874
RightHand  -0.109747 -13.0257 0.556723
LeftUpLeg  -5.59178 1.3399 -0.920711
LeftLeg  5.06106 15.218 0.361416
LeftFoot  6.42763 -0.0982897 1.91189
LeftToes  -16.8485 1.89912e-006 4.45198e-008
